<?xml version="1.0" encoding="UTF-8" standalone="no"?>
<!-- Created with Inkscape (http://www.inkscape.org/) -->

<svg
   width="64pt"
   height="64pt"
   viewBox="0 0 22.577778 22.577778"
   version="1.1"
   id="svg831"
   inkscape:version="1.1.2 (b8e25be833, 2022-02-05)"
   sodipodi:docname="Export - Unblash - 64px.svg"
   inkscape:export-filename="E:\Icon Design\TR Icon Design Project\Carlos - Icon Design Project\2023\Januari 2023\Done\New folder\10 - Geographic.png"
   inkscape:export-xdpi="576"
   inkscape:export-ydpi="576"
   xmlns:inkscape="http://www.inkscape.org/namespaces/inkscape"
   xmlns:sodipodi="http://sodipodi.sourceforge.net/DTD/sodipodi-0.dtd"
   xmlns="http://www.w3.org/2000/svg"
   xmlns:svg="http://www.w3.org/2000/svg"
   xmlns:rdf="http://www.w3.org/1999/02/22-rdf-syntax-ns#"
   xmlns:cc="http://creativecommons.org/ns#"
   xmlns:dc="http://purl.org/dc/elements/1.1/">
  <defs
     id="defs825">
    <pattern
       id="EMFhbasepattern"
       patternUnits="userSpaceOnUse"
       width="6"
       height="6"
       x="0"
       y="0" />
    <pattern
       id="EMFhbasepattern-9"
       patternUnits="userSpaceOnUse"
       width="6"
       height="6"
       x="0"
       y="0" />
    <pattern
       id="EMFhbasepattern-0"
       patternUnits="userSpaceOnUse"
       width="6"
       height="6"
       x="0"
       y="0" />
    <pattern
       id="EMFhbasepattern-7"
       patternUnits="userSpaceOnUse"
       width="6"
       height="6"
       x="0"
       y="0" />
    <pattern
       id="EMFhbasepattern-2"
       patternUnits="userSpaceOnUse"
       width="6"
       height="6"
       x="0"
       y="0" />
    <pattern
       id="EMFhbasepattern-98"
       patternUnits="userSpaceOnUse"
       width="6"
       height="6"
       x="0"
       y="0" />
    <pattern
       id="EMFhbasepattern-6"
       patternUnits="userSpaceOnUse"
       width="6"
       height="6"
       x="0"
       y="0" />
    <pattern
       id="EMFhbasepattern-01"
       patternUnits="userSpaceOnUse"
       width="6"
       height="6"
       x="0"
       y="0" />
    <pattern
       id="EMFhbasepattern-07"
       patternUnits="userSpaceOnUse"
       width="6"
       height="6"
       x="0"
       y="0" />
    <pattern
       id="EMFhbasepattern-8"
       patternUnits="userSpaceOnUse"
       width="6"
       height="6"
       x="0"
       y="0" />
    <pattern
       id="EMFhbasepattern-4"
       patternUnits="userSpaceOnUse"
       width="6"
       height="6"
       x="0"
       y="0" />
    <pattern
       id="EMFhbasepattern-40"
       patternUnits="userSpaceOnUse"
       width="6"
       height="6"
       x="0"
       y="0" />
    <pattern
       id="EMFhbasepattern-08"
       patternUnits="userSpaceOnUse"
       width="6"
       height="6"
       x="0"
       y="0" />
    <pattern
       id="EMFhbasepattern-04"
       patternUnits="userSpaceOnUse"
       width="6"
       height="6"
       x="0"
       y="0" />
    <pattern
       id="EMFhbasepattern-014"
       patternUnits="userSpaceOnUse"
       width="6"
       height="6"
       x="0"
       y="0" />
    <pattern
       id="EMFhbasepattern-27"
       patternUnits="userSpaceOnUse"
       width="6"
       height="6"
       x="0"
       y="0" />
    <pattern
       id="EMFhbasepattern-09"
       patternUnits="userSpaceOnUse"
       width="6"
       height="6"
       x="0"
       y="0" />
    <pattern
       id="EMFhbasepattern-5"
       patternUnits="userSpaceOnUse"
       width="6"
       height="6"
       x="0"
       y="0" />
    <pattern
       id="EMFhbasepattern-018"
       patternUnits="userSpaceOnUse"
       width="6"
       height="6"
       x="0"
       y="0" />
  </defs>
  <sodipodi:namedview
     id="base"
     pagecolor="#ffffff"
     bordercolor="#666666"
     borderopacity="1.0"
     inkscape:pageopacity="0.0"
     inkscape:pageshadow="2"
     inkscape:zoom="5.3085938"
     inkscape:cx="42.666667"
     inkscape:cy="42.57248"
     inkscape:document-units="pt"
     inkscape:current-layer="layer1"
     showgrid="false"
     units="pt"
     inkscape:window-width="958"
     inkscape:window-height="1041"
     inkscape:window-x="0"
     inkscape:window-y="0"
     inkscape:window-maximized="0"
     inkscape:pagecheckerboard="true"
     inkscape:showpageshadow="false"
     inkscape:object-paths="true"
     inkscape:snap-intersection-paths="true"
     inkscape:snap-smooth-nodes="true"
     inkscape:snap-midpoints="true"
     showguides="true"
     inkscape:snap-bbox="true"
     inkscape:bbox-nodes="true"
     inkscape:snap-nodes="false"
     inkscape:snap-global="true"
     inkscape:snap-others="false">
    <inkscape:grid
       type="xygrid"
       id="grid1378" />
    <sodipodi:guide
       position="0.97013831,21.607643"
       orientation="78.000048,0"
       id="guide1380"
       inkscape:locked="false" />
    <sodipodi:guide
       position="0.97013831,0.97013129"
       orientation="0,78.000005"
       id="guide1382"
       inkscape:locked="false" />
    <sodipodi:guide
       position="21.607639,0.97013129"
       orientation="-78.000048,0"
       id="guide1384"
       inkscape:locked="false" />
    <sodipodi:guide
       position="21.607639,21.607643"
       orientation="0,-78.000005"
       id="guide1386"
       inkscape:locked="false" />
  </sodipodi:namedview>
  <metadata
     id="metadata828">
    <rdf:RDF>
      <cc:Work
         rdf:about="">
        <dc:format>image/svg+xml</dc:format>
        <dc:type
           rdf:resource="http://purl.org/dc/dcmitype/StillImage" />
      </cc:Work>
    </rdf:RDF>
  </metadata>
  <g
     inkscape:label="Icon"
     inkscape:groupmode="layer"
     id="layer1"
     transform="translate(0,-274.42223)">
    <path
       id="path1712"
       style="color:#000000;display:inline;fill:#000000;stroke-width:1;stroke-linecap:round;stroke-linejoin:round;-inkscape-stroke:none"
       d="M 9.9144846,277.72146 C 9.7935985,277.25553 9.4250249,276.8863 8.9594644,276.76449 v -1.04016 c -7.171e-4,-0.18384 -0.1503258,-0.33227 -0.3341496,-0.33157 -0.1830615,3.4e-4 -0.3314838,0.14847 -0.3321984,0.33155 v 1.03952 c -0.4721275,0.12279 -0.8450867,0.50064 -0.9615206,0.97518 -0.079924,-0.0113 -0.1615136,-0.0169 -0.2444417,-0.0169 -0.8478432,0 -1.5590205,0.61142 -1.7150075,1.41531 H 3.7572599 c -0.1828136,7.2e-4 -0.3308384,0.14873 -0.331558,0.33155 -7.221e-4,0.18384 0.1477228,0.33344 0.331558,0.33416 h 1.6148867 c 0.1569821,0.80264 0.86805,1.4127 1.7150075,1.4127 0.9611708,0 1.7468512,-0.78569 1.7468587,-1.74686 0,-0.0336 -0.00138,-0.0669 -0.00327,-0.10014 0.5241404,-0.0825 0.9503365,-0.47458 1.0830936,-0.98103 h 1.0427846 c 0.184084,-3.7e-4 0.332922,-0.15007 0.332207,-0.33415 -7.15e-4,-0.18307 -0.149136,-0.33121 -0.332207,-0.33156 z m 4.3278414,0.16773 c 0,0.57328 0.194952,1.10225 0.522043,1.52451 -0.638502,1.10436 -1.273218,2.20655 -1.911337,3.31226 -0.09057,-0.008 -0.181912,-0.0113 -0.27435,-0.0113 -1.291147,0 -2.414561,0.74004 -2.966478,1.81837 -1.0748144,-0.28861 -2.1476435,-0.57467 -3.2219887,-0.86253 -0.180656,-1.10565 -1.1438612,-1.9562 -2.2988096,-1.9562 -1.2828896,0 -2.3313164,1.04908 -2.3313164,2.33196 0,1.28288 1.0484268,2.32937 2.3313164,2.32937 0.6924676,0 1.316296,-0.30489 1.7436105,-0.78729 1.1492985,0.3078 2.2981907,0.61508 3.4476678,0.92254 0.1376408,0.97407 0.6992045,1.81378 1.491366,2.32676 l -0.753484,1.30738 c -0.1885315,-0.0701 -0.3917683,-0.10794 -0.6039587,-0.10794 -0.9330987,0 -1.7008418,0.74035 -1.7449088,1.66299 H 5.9638444 c -0.1848517,-7.3e-4 -0.3348869,0.14931 -0.334161,0.33417 3.561e-4,0.18409 0.1500717,0.33293 0.334161,0.33221 h 1.8060211 c 0.2410966,0.67756 0.8895462,1.16696 1.6467418,1.16696 0.9611767,0 1.7468547,-0.78829 1.7468617,-1.74946 0,-0.51063 -0.222017,-0.97167 -0.574053,-1.29178 l 0.778189,-1.349 c 0.375615,0.14721 0.78421,0.22755 1.211164,0.22755 0.474684,0 0.926781,-0.10027 1.335991,-0.28021 l 1.467959,2.5452 c -0.399628,0.4661 -0.641663,1.07116 -0.641663,1.73061 -4e-6,1.46673 1.196799,2.66354 2.663524,2.66354 1.466723,0 2.66353,-1.19681 2.663522,-2.66354 0,-0.83439 -0.387428,-1.58157 -0.991424,-2.07061 l 0.382917,-1.42701 c 0.751117,-0.0303 1.35809,-0.65392 1.358093,-1.41205 -3e-6,-0.66323 -0.464601,-1.225 -1.083743,-1.37565 v -1.3711 c -7.13e-4,-0.18282 -0.148741,-0.33084 -0.331561,-0.33156 -0.183071,3.6e-4 -0.331492,0.14849 -0.332207,0.33156 v 1.37109 c -0.619019,0.15074 -1.083091,0.71251 -1.083093,1.37565 2e-6,0.56401 0.335921,1.05332 0.817195,1.27943 l -0.320507,1.1962 c -0.473709,-0.18565 -0.86194,-0.25695 -1.325585,-0.21816 -0.572859,-0.99208 -1.144779,-1.98032 -1.718452,-2.97227 0.29699,-0.49749 0.468084,-1.07805 0.468084,-1.6981 0,-1.02277 -0.464406,-1.94023 -1.193613,-2.55171 l 1.800821,-3.11729 c 0.07363,0.006 0.148346,0.0101 0.223639,0.0101 1.374801,0 2.496444,-1.12164 2.496444,-2.49644 0,-1.37481 -1.121643,-2.49645 -2.496393,-2.49602 -1.374748,4.3e-4 -2.496391,1.12205 -2.496391,2.49687 z m 4.32652,0 c 0,1.01502 -0.815052,1.83007 -1.830076,1.83007 -1.027103,0 -1.830739,-0.96425 -1.830739,-1.83007 0,-1.00463 0.815705,-1.83073 1.830733,-1.83073 1.01503,10e-6 1.830082,0.81569 1.830082,1.83073 z m -1.830076,-1.16761 c -0.639476,0 -1.165008,0.52813 -1.165008,1.16761 7.16e-4,0.18383 0.150326,0.33227 0.334161,0.33155 0.182819,-7.1e-4 0.330846,-0.14873 0.331558,-0.33155 0,-0.27969 0.219598,-0.50124 0.499289,-0.50124 0.13989,0 0.262965,0.0562 0.353663,0.14693 0.130132,0.13082 0.341853,0.13082 0.471985,0 0.130395,-0.13006 0.130395,-0.34128 0,-0.47134 -0.210481,-0.21056 -0.505957,-0.34196 -0.825648,-0.34196 z m -7.4476457,1.33208 c -3.8e-6,0.35866 -0.274157,0.64555 -0.6273597,0.66507 -0.1518241,-0.31693 -0.3964156,-0.58118 -0.6982257,-0.75802 0.043956,-0.32487 0.2894636,-0.57341 0.6605169,-0.57341 0.3746978,0.004 0.6650685,0.29716 0.6650685,0.66636 z m -1.1228468,1.41531 c 0,0.67421 -0.4797425,1.08114 -1.0811398,1.08114 -0.5965903,0 -1.0761139,-0.47221 -1.0837427,-1.07401 -3.8e-6,-0.59918 0.4390722,-1.08829 1.0694424,-1.08829 0.622135,0 1.0954401,0.47443 1.0954401,1.08116 z m 7.0856285,0.42453 c 0.178229,0.13246 0.374476,0.24146 0.584453,0.3231 l -0.429725,0.74503 -0.578602,-0.33351 z m -1.70982,2.96388 0.953087,-1.6526 0.57795,0.33416 -0.911142,1.57848 c -0.195918,-0.10643 -0.4033,-0.19418 -0.619895,-0.26004 z m -7.7888717,1.18906 c 0,0.98545 -0.7569465,1.64721 -1.6636513,1.66359 -0.9231086,0 -1.6655975,-0.74054 -1.6655975,-1.66364 0,-0.90869 0.6882934,-1.66557 1.6440735,-1.66557 0.9914609,0 1.6851753,0.8405 1.6851753,1.66562 z m -2.6636922,0 c 7.159e-4,0.18384 0.1503258,0.33227 0.3341609,0.33156 0.1828187,-7.2e-4 0.330846,-0.14874 0.331558,-0.33156 0,-0.18778 0.1463856,-0.33417 0.334161,-0.33417 0.1830727,-3.5e-4 0.3314925,-0.14848 0.3322071,-0.33156 7.158e-4,-0.18407 -0.1481229,-0.33378 -0.3448845,-0.33415 -0.5486699,0.0138 -0.987205,0.46088 -0.9872025,0.99988 z m 12.1506989,1.99818 c 0,1.52925 -1.172468,2.64687 -2.663526,2.661 -1.439275,-0.021 -2.6635298,-1.14273 -2.6635298,-2.66097 0,-1.44234 1.2436998,-2.66367 2.6635438,-2.66367 1.591693,0 2.639795,1.38923 2.663512,2.66364 z m -8.8422608,-1.68419 0.8002939,0.21455 -0.1716283,0.64297 -0.8126467,-0.21714 c 0.090429,-0.20013 0.1534054,-0.41531 0.1839811,-0.64038 z m 4.9779368,0.17359 c -0.0801,0.006 -0.155367,0.0405 -0.211938,0.0975 -0.361035,0.36102 -0.585106,0.86316 -0.585103,1.4127 -3e-6,0.89171 0.588712,1.64992 1.401001,1.90419 0.175015,0.0552 0.361718,-0.0416 0.417372,-0.21649 0.05509,-0.17558 -0.04276,-0.36256 -0.218439,-0.41738 -0.53972,-0.16894 -0.934216,-0.67052 -0.934216,-1.27032 0,-0.36964 0.149405,-0.70266 0.39072,-0.94398 0.128656,-0.12975 0.128656,-0.33897 0,-0.46872 -0.06819,-0.0687 -0.162869,-0.10429 -0.259397,-0.0975 z m -3.5340292,0.21324 1.525823,0.40827 c -0.058877,0.212 -0.096933,0.4327 -0.1124697,0.65922 l -1.5849829,-0.42453 z m 11.5584072,2.96062 c 0.417566,0 0.748934,0.33137 0.748934,0.74894 0,0.41756 -0.331368,0.74698 -0.748934,0.74698 -0.417562,0 -0.749579,-0.32942 -0.749582,-0.74698 3e-6,-0.41757 0.33202,-0.74894 0.749582,-0.74894 z m -4.396082,0.61047 0.715777,1.24172 -0.576003,0.33351 -0.652714,-1.12991 c 0.185759,-0.131 0.357761,-0.28004 0.51294,-0.44532 z m 1.049288,1.81967 0.421923,0.73203 c -0.210057,0.0784 -0.407646,0.1826 -0.589004,0.30881 l -0.408921,-0.70863 z m -5.557825,1.64641 c -3e-6,0.60139 -0.479747,1.08374 -1.0811431,1.08374 -0.6013935,0 -1.0811373,-0.48235 -1.0811411,-1.08374 -2.5e-6,-0.59201 0.4537424,-1.08129 1.0668358,-1.08129 0.6089244,0 1.0836894,0.46753 1.0954484,1.08129 z m 8.904633,1.58206 c 6e-6,1.10695 -0.890862,1.99781 -1.997805,1.99781 -1.106944,0 -1.997808,-0.89086 -1.997805,-1.99781 0,-1.24722 0.919093,-1.99786 1.99781,-1.99786 1.106935,5e-5 1.9978,0.89093 1.9978,1.99786 z m -2.939172,-0.9414 c -0.24058,0.24058 -0.39072,0.57567 -0.39072,0.94136 -2e-6,0.7314 0.600698,1.33144 1.332087,1.33144 0.184847,7.3e-4 0.334879,-0.14931 0.334161,-0.33415 -7.17e-4,-0.18384 -0.150327,-0.33228 -0.334161,-0.33156 -0.37161,0 -0.665719,-0.29411 -0.665719,-0.66573 0,-0.18581 0.07548,-0.35113 0.196334,-0.47198 0.129089,-0.12983 0.129089,-0.33955 0,-0.46938 -0.126913,-0.11322 -0.351995,-0.12002 -0.471982,0 z"
       sodipodi:nodetypes="cccccccsccsccsscccsccsccsccsssccccscccccssccsccsssccscccccsccccsccsscsscccsscscscccsscccscscccccccccccccccscccsccsccccccccccccccscccsccccccccssssscccccccccccssccssccscscscsccc" />
  </g>
</svg>
